<svg viewBox="0 0 24 24" fill="none" xmlns="http://www.w3.org/2000/svg">
<defs>
  <linearGradient id="ptvGrad" x1="3" y1="3" x2="21" y2="21" gradientUnits="userSpaceOnUse">
    <stop stop-color="#31D8FF"/>
    <stop offset="0.52" stop-color="#7E6CFF"/>
    <stop offset="1" stop-color="#FF43D1"/>
  </linearGradient>
  <filter id="ptvGlow" x="-50%" y="-50%" width="200%" height="200%">
    <feDropShadow dx="0" dy="0" stdDeviation="1.3" flood-color="#9B6BFF" flood-opacity="0.28"/>
  </filter>
</defs>
<g filter="url(#ptvGlow)">

<path d="M17.4 6.8C16.2 6.25 14.93 5.86 13.62 5.65L13.3 6.29C12.45 6.17 11.58 6.17 10.73 6.29L10.41 5.65C9.09 5.86 7.82 6.25 6.61 6.8C4.17 10.44 3.51 13.99 3.84 17.49C5.46 18.68 7.03 19.4 8.58 19.87L9.28 18.74C8.44 18.43 7.64 18.03 6.89 17.55L7.22 17.3C9.16 18.21 11.27 18.57 13.38 18.38C14.98 18.24 16.53 17.84 17.98 17.3L18.31 17.55C17.56 18.03 16.76 18.43 15.92 18.74L16.62 19.87C18.18 19.4 19.75 18.68 21.36 17.49C21.75 13.43 20.69 9.91 17.4 6.8Z" fill="url(#ptvGrad)"/>
<circle cx="9.4" cy="12.8" r="1.2" fill="white" fill-opacity="0.95"/>
<circle cx="15.8" cy="12.8" r="1.2" fill="white" fill-opacity="0.95"/>

</g>
</svg>