<svg viewBox="0 0 24 24" fill="none" xmlns="http://www.w3.org/2000/svg">
<defs>
  <linearGradient id="ptvGrad" x1="3" y1="3" x2="21" y2="21" gradientUnits="userSpaceOnUse">
    <stop stop-color="#31D8FF"/>
    <stop offset="0.52" stop-color="#7E6CFF"/>
    <stop offset="1" stop-color="#FF43D1"/>
  </linearGradient>
</defs>

<rect x="4" y="4.5" width="16" height="15" rx="3.2" fill="white" fill-opacity="0.96"/>
<path d="M16.45 8.15C15.5 7.72 14.48 7.42 13.43 7.25L13.18 7.76C12.5 7.67 11.81 7.67 11.13 7.76L10.88 7.25C9.82 7.42 8.81 7.72 7.84 8.15C5.89 11.06 5.36 13.9 5.63 16.7C6.92 17.65 8.18 18.22 9.42 18.59L9.98 17.69C9.31 17.45 8.67 17.13 8.07 16.75L8.33 16.55C9.88 17.28 11.57 17.57 13.26 17.42C14.54 17.31 15.78 16.99 16.94 16.55L17.2 16.75C16.6 17.13 15.96 17.45 15.29 17.69L15.85 18.59C17.1 18.22 18.35 17.65 19.64 16.7C19.95 13.46 19.1 10.65 16.45 8.15Z" fill="url(#ptvGrad)"/>
<circle cx="10.07" cy="12.95" r="0.95" fill="white" fill-opacity="0.95"/>
<circle cx="14.93" cy="12.95" r="0.95" fill="white" fill-opacity="0.95"/>
        
</svg>