<svg viewBox="0 0 24 24" fill="none" xmlns="http://www.w3.org/2000/svg">
<defs>
  <linearGradient id="ptvGrad" x1="3" y1="3" x2="21" y2="21" gradientUnits="userSpaceOnUse">
    <stop stop-color="#31D8FF"/>
    <stop offset="0.52" stop-color="#7E6CFF"/>
    <stop offset="1" stop-color="#FF43D1"/>
  </linearGradient>
</defs>

<path d="M6.4 10.2C6.8 8.05 8.62 6.5 10.82 6.5H13.18C15.38 6.5 17.2 8.05 17.6 10.2L18.55 14.25C18.97 16.02 17.61 17.65 15.79 17.65C14.93 17.65 14.11 17.33 13.49 16.74L12.6 15.89C12.25 15.56 11.75 15.56 11.4 15.89L10.51 16.74C9.89 17.33 9.07 17.65 8.21 17.65C6.39 17.65 5.03 16.02 5.45 14.25L6.4 10.2Z" fill="url(#ptvGrad)"/>
<path d="M8.75 10.55V13.95M7.05 12.25H10.45" stroke="white" stroke-opacity="0.92" stroke-width="1.35" stroke-linecap="round"/>
<circle cx="15.25" cy="11.25" r="0.92" fill="white" fill-opacity="0.95"/>
<circle cx="16.95" cy="12.95" r="0.92" fill="white" fill-opacity="0.82"/>
<circle cx="15.25" cy="14.65" r="0.92" fill="white" fill-opacity="0.72"/>
<circle cx="13.55" cy="12.95" r="0.92" fill="white" fill-opacity="0.88"/>
<path d="M9.9 8.2C10.5 8 11.22 7.9 12 7.9C12.78 7.9 13.5 8 14.1 8.2" stroke="white" stroke-opacity="0.2" stroke-width="1" stroke-linecap="round"/>

</svg>