<svg viewBox="0 0 24 24" fill="none" xmlns="http://www.w3.org/2000/svg">
<defs>
  <linearGradient id="ptvGrad" x1="3" y1="3" x2="21" y2="21" gradientUnits="userSpaceOnUse">
    <stop stop-color="#31D8FF"/>
    <stop offset="0.52" stop-color="#7E6CFF"/>
    <stop offset="1" stop-color="#FF43D1"/>
  </linearGradient>
  <filter id="ptvGlow" x="-50%" y="-50%" width="200%" height="200%">
    <feDropShadow dx="0" dy="0" stdDeviation="1.3" flood-color="#9B6BFF" flood-opacity="0.28"/>
  </filter>
</defs>
<g filter="url(#ptvGlow)">

<path d="M6.7 9.2C7.1 7.25 8.8 5.85 10.8 5.85H13.2C15.2 5.85 16.9 7.25 17.3 9.2L18.35 14.18C18.8 16.33 17.15 18.3 14.95 18.3C13.95 18.3 12.99 17.92 12.25 17.24L12 17.01L11.75 17.24C11.01 17.92 10.05 18.3 9.05 18.3C6.85 18.3 5.2 16.33 5.65 14.18L6.7 9.2Z" fill="url(#ptvGrad)"/>
<path d="M9.1 10.7V13.7M7.6 12.2H10.6" stroke="white" stroke-opacity="0.9" stroke-width="1.5" stroke-linecap="round"/>
<circle cx="15.4" cy="11" r="1.05" fill="white" fill-opacity="0.95"/>
<circle cx="17.2" cy="12.8" r="1.05" fill="white" fill-opacity="0.82"/>
<circle cx="15.4" cy="14.6" r="1.05" fill="white" fill-opacity="0.7"/>
<circle cx="13.6" cy="12.8" r="1.05" fill="white" fill-opacity="0.88"/>

</g>
</svg>