<svg viewBox="0 0 24 24" fill="none" xmlns="http://www.w3.org/2000/svg">
<defs>
  <linearGradient id="ptvGrad" x1="3" y1="3" x2="21" y2="21" gradientUnits="userSpaceOnUse">
    <stop stop-color="#31D8FF"/>
    <stop offset="0.52" stop-color="#7E6CFF"/>
    <stop offset="1" stop-color="#FF43D1"/>
  </linearGradient>
  <filter id="ptvGlow" x="-50%" y="-50%" width="200%" height="200%">
    <feDropShadow dx="0" dy="0" stdDeviation="1.3" flood-color="#9B6BFF" flood-opacity="0.28"/>
  </filter>
</defs>
<g filter="url(#ptvGlow)">

<path d="M15.5 4V14.4C15.5 15.78 14.16 16.9 12.5 16.9C10.84 16.9 9.5 15.78 9.5 14.4C9.5 13.02 10.84 11.9 12.5 11.9C13.23 11.9 13.91 12.12 14.45 12.47V7.35L9 8.5V15.9C9 17.28 7.66 18.4 6 18.4C4.34 18.4 3 17.28 3 15.9C3 14.52 4.34 13.4 6 13.4C6.73 13.4 7.41 13.62 7.95 13.97V6.25L15.5 4Z" fill="url(#ptvGrad)"/>

</g>
</svg>