<svg viewBox="0 0 24 24" fill="none" xmlns="http://www.w3.org/2000/svg">
<defs>
  <linearGradient id="ptvGrad" x1="3" y1="3" x2="21" y2="21" gradientUnits="userSpaceOnUse">
    <stop stop-color="#31D8FF"/>
    <stop offset="0.52" stop-color="#7E6CFF"/>
    <stop offset="1" stop-color="#FF43D1"/>
  </linearGradient>
  <filter id="ptvGlow" x="-50%" y="-50%" width="200%" height="200%">
    <feDropShadow dx="0" dy="0" stdDeviation="1.3" flood-color="#9B6BFF" flood-opacity="0.28"/>
  </filter>
</defs>
<g filter="url(#ptvGlow)">

<path d="M9 6.5C9 5.12 10.12 4 11.5 4C12.88 4 14 5.12 14 6.5V8H16.5C17.88 8 19 9.12 19 10.5C19 11.88 17.88 13 16.5 13H15V15.5C15 16.88 13.88 18 12.5 18C11.12 18 10 16.88 10 15.5V13H7.5C6.12 13 5 11.88 5 10.5C5 9.12 6.12 8 7.5 8H9V6.5Z" fill="url(#ptvGrad)"/>

</g>
</svg>